<?xml version="1.0" standalone="no"?>
<!DOCTYPE svg PUBLIC "-//W3C//DTD SVG 20010904//EN"
 "http://www.w3.org/TR/2001/REC-SVG-20010904/DTD/svg10.dtd">
<svg version="1.0" xmlns="http://www.w3.org/2000/svg"
 width="1024.000000pt" height="1024.000000pt" viewBox="0 0 1024.000000 1024.000000"
 preserveAspectRatio="xMidYMid meet">

<g transform="translate(0.000000,1024.000000) scale(0.100000,-0.100000)"
fill="#000000" stroke="none">
<path d="M0 5120 l0 -5120 5120 0 5120 0 0 5120 0 5120 -5120 0 -5120 0 0
-5120z m7270 3415 c-184 -184 -337 -332 -340 -329 -5 5 659 663 670 664 3 0
-146 -151 -330 -335z m-170 78 c-1 -14 -51 -65 -57 -59 -4 3 6 20 22 36 30 32
35 35 35 23z m979 -380 c-590 -596 -630 -635 -634 -631 -4 4 955 968 964 968
2 0 -146 -152 -330 -337z m-2825 84 c19 -26 19 -30 5 -55 -28 -51 -109 -35
-109 21 0 28 40 69 64 65 10 -2 28 -16 40 -31z m1607 -164 c13 -16 12 -17 -3
-4 -10 7 -18 15 -18 17 0 8 8 3 21 -13z m-218 -30 l-18 -28 30 22 c36 25 94
38 130 29 26 -7 105 -72 105 -87 0 -4 5 -20 11 -36 l12 -28 7 25 c7 22 8 22 9
4 4 -89 -85 -174 -182 -174 -79 0 -157 75 -157 152 0 42 22 102 47 130 23 26
26 22 6 -9z m902 -4 c4 -5 4 -21 1 -35 -5 -17 -13 -24 -31 -24 -29 0 -47 27
-34 52 11 20 54 24 64 7z m-4550 -99 c-3 -5 -10 -10 -16 -10 -5 0 -9 5 -9 10
0 6 7 10 16 10 8 0 12 -4 9 -10z m4235 -41 c0 -5 -4 -9 -9 -9 -5 0 -16 -3 -24
-6 -12 -4 -14 0 -10 14 3 14 11 18 24 15 10 -3 19 -9 19 -14z m18 -65 c-4 -37
-33 -40 -33 -4 0 14 4 31 9 38 14 19 28 -1 24 -34z m-2458 -90 c0 -9 -5 -14
-12 -12 -18 6 -21 28 -4 28 9 0 16 -7 16 -16z m541 -51 c13 -16 12 -17 -4 -4
-13 10 -21 11 -29 3 -14 -14 0 -35 19 -28 8 3 11 1 8 -4 -9 -15 -35 -12 -41 5
-6 15 11 45 26 45 4 0 14 -8 21 -17z m1754 -23 l20 -9 -20 0 c-11 0 -27 4 -35
9 -13 9 -13 10 0 9 8 0 24 -4 35 -9z m125 -35 c68 -23 160 -70 160 -81 0 -3
-20 7 -44 21 -24 14 -81 39 -127 55 -46 15 -79 29 -73 29 6 1 43 -10 84 -24z
m-660 -5 c0 -5 -5 -10 -11 -10 -5 0 -7 5 -4 10 3 6 8 10 11 10 2 0 4 -4 4 -10z
m-2385 -49 c3 -5 1 -12 -5 -16 -5 -3 -10 1 -10 9 0 18 6 21 15 7z m2131 -199
c-103 -103 -225 -220 -270 -261 -44 -41 38 45 184 192 145 146 266 264 269
261 3 -3 -79 -89 -183 -192z m1174 103 c111 -96 209 -232 251 -351 26 -73 49
-194 47 -254 0 -32 -3 -22 -10 35 -24 217 -108 388 -263 534 l-57 54 -81 -81
c-44 -46 -81 -81 -83 -79 -2 2 31 40 74 85 l77 82 -25 20 c-18 15 -19 18 -5
11 11 -5 45 -31 75 -56z m-1890 -5 c22 0 50 -46 50 -81 0 -48 -26 -78 -72 -86
-32 -5 -41 -1 -68 25 -33 33 -37 56 -18 98 13 28 63 57 86 49 8 -3 18 -5 22
-5z m1455 -45 c143 -36 299 -147 375 -265 75 -117 112 -349 76 -480 -10 -34
-14 -42 -11 -20 24 190 11 319 -43 434 -75 158 -239 283 -422 322 -157 33
-359 -2 -487 -86 -55 -36 -61 -44 -58 -70 3 -24 1 -28 -13 -24 -10 4 -13 2 -7
-3 6 -4 11 -28 12 -53 1 -25 7 -46 13 -48 5 -2 10 -26 10 -54 l0 -49 32 23 33
23 -23 -32 c-26 -37 -29 -108 -7 -178 7 -22 15 -78 19 -125 8 -109 24 -126 72
-76 31 32 31 35 21 80 -22 97 32 215 121 264 54 30 137 39 199 21 88 -24 173
-137 173 -229 0 -45 -29 -116 -66 -158 -48 -57 -105 -82 -185 -82 -79 0 -132
23 -185 79 l-40 41 -54 -62 c-30 -34 -49 -59 -42 -55 8 6 12 -1 12 -22 0 -17
5 -31 11 -31 8 0 8 -5 -1 -15 -9 -10 -9 -15 -1 -15 6 0 11 -7 11 -16 0 -8 4
-13 8 -10 4 2 8 -7 9 -22 1 -15 7 -51 13 -81 13 -59 5 -135 -11 -110 -5 8 -9
11 -9 6 0 -12 -96 40 -133 73 l-34 29 -35 -42 c-49 -58 -284 -277 -270 -251 6
11 30 38 54 60 24 21 87 85 141 142 95 100 98 104 82 122 -17 19 -18 19 -54
-10 -20 -16 -101 -92 -181 -169 -80 -76 -149 -137 -154 -134 -5 4 11 24 35 47
24 22 106 100 183 173 l138 133 -31 47 c-17 25 -36 61 -43 80 -7 18 -18 33
-25 33 -7 0 -13 5 -13 11 0 5 5 7 10 4 14 -9 12 11 -3 27 -13 14 -13 18 -23
168 -9 155 20 248 125 398 116 164 294 250 516 251 59 1 126 -5 160 -14z
m-3578 -47 c-3 -8 -6 -5 -6 6 -1 11 2 17 5 13 3 -3 4 -12 1 -19z m1402 -15 c0
-29 -2 -33 -8 -18 -7 18 -4 55 5 55 2 0 4 -17 3 -37z m-3139 -37 c-14 -14 -24
0 -16 21 6 15 8 15 16 3 6 -9 5 -19 0 -24z m1747 2 c-3 -7 -5 -2 -5 12 0 14 2
19 5 13 2 -7 2 -19 0 -25z m3883 -8 c0 -5 -5 -10 -11 -10 -5 0 -7 5 -4 10 3 6
8 10 11 10 2 0 4 -4 4 -10z m-3873 -32 c-3 -8 -6 -5 -6 6 -1 11 2 17 5 13 3
-3 4 -12 1 -19z m3025 -20 c-18 -19 -22 -20 -22 -6 0 9 8 21 17 27 27 15 29 3
5 -21z m1068 12 c0 -5 -5 -10 -11 -10 -5 0 -7 5 -4 10 3 6 8 10 11 10 2 0 4
-4 4 -10z m-1015 -10 c-3 -5 -10 -10 -16 -10 -5 0 -9 5 -9 10 0 6 7 10 16 10
8 0 12 -4 9 -10z m1370 0 c3 -5 1 -10 -4 -10 -6 0 -11 5 -11 10 0 6 2 10 4 10
3 0 8 -4 11 -10z m-1405 -36 c0 -8 -32 -33 -42 -34 -5 0 -8 5 -8 10 0 6 7 10
16 10 8 0 12 5 9 10 -3 6 1 10 9 10 9 0 16 -3 16 -6z m503 -24 c32 -12 79 -39
106 -60 49 -39 118 -126 108 -137 -3 -3 -12 8 -20 24 -24 45 -112 122 -175
151 -47 22 -75 27 -162 30 -71 3 -98 8 -85 13 32 14 167 2 228 -21z m-366 -30
c-14 -11 -28 -20 -32 -20 -10 0 38 39 49 40 5 0 -3 -9 -17 -20z m-1717 -20 c0
-5 -4 -10 -10 -10 -5 0 -10 5 -10 10 0 6 5 10 10 10 6 0 10 -4 10 -10z m-1263
-32 c-3 -7 -5 -2 -5 12 0 14 2 19 5 13 2 -7 2 -19 0 -25z m888 -12 c115 -20
227 -47 221 -53 -2 -2 -21 0 -42 6 -83 22 -222 41 -371 51 -231 16 -446 -1
-698 -54 -113 -24 -337 -101 -427 -147 -37 -19 -40 -23 -34 -52 l5 -32 -15 28
-15 28 -77 -42 c-445 -244 -766 -558 -989 -969 -88 -161 -191 -451 -232 -649
-19 -89 -43 -281 -37 -288 3 -4 223 -22 328 -28 59 -3 99 -1 103 5 4 6 -9 10
-31 10 -47 0 -41 8 8 12 26 1 38 7 41 20 3 11 0 18 -9 18 -8 0 -14 9 -14 20 0
11 7 20 16 20 8 0 12 5 9 10 -3 6 0 10 7 11 7 0 2 5 -11 10 -23 9 -23 10 -4
27 25 22 36 62 17 62 -8 0 -14 5 -14 11 0 6 9 9 19 6 12 -3 22 1 25 9 3 8 0
14 -6 14 -6 0 -5 6 3 17 8 10 9 14 2 10 -6 -4 -14 -3 -18 3 -3 5 0 10 8 10 7
0 19 16 27 35 9 24 20 35 34 35 13 0 17 3 9 8 -6 4 -13 16 -15 27 -2 14 2 19
15 17 10 -2 17 3 17 13 0 8 -4 15 -10 15 -5 0 -10 7 -10 15 0 12 4 14 16 7 13
-7 24 4 56 65 l39 74 -23 19 c-25 21 -18 26 12 10 14 -8 21 -5 34 15 9 13 16
36 16 50 0 15 4 24 10 20 6 -3 11 -1 11 4 1 6 2 17 3 24 1 6 -3 15 -8 19 -6 4
-7 10 -3 14 4 4 15 0 26 -10 17 -16 19 -16 26 1 5 10 8 21 7 25 -1 4 4 5 12 2
8 -3 18 7 26 26 7 17 17 33 23 37 6 4 7 1 2 -8 -5 -8 3 -2 18 14 14 15 30 27
36 27 5 0 8 11 5 24 -2 14 0 28 6 31 5 3 10 2 10 -3 0 -14 43 -2 53 15 4 7 14
13 22 13 19 0 86 60 79 71 -3 5 15 14 40 21 26 7 46 18 46 25 0 7 9 13 20 13
11 0 20 7 20 15 0 10 11 15 35 15 37 0 85 18 85 32 0 4 13 8 29 8 16 0 37 7
45 16 9 8 24 14 33 13 10 -1 27 2 38 7 11 5 46 9 78 9 38 0 57 4 57 12 0 15
61 33 75 22 6 -5 23 2 38 15 18 16 47 26 85 31 31 4 84 16 116 27 33 10 80 19
105 18 94 -3 121 0 121 14 0 20 30 23 186 21 92 -2 146 1 159 9 11 7 49 13 85
15 36 1 66 6 68 11 2 5 10 6 18 3 10 -4 17 2 21 15 3 12 11 18 18 16 7 -3 23
0 35 6 15 8 25 9 29 2 4 -6 52 -9 124 -6 l119 3 -56 -63 c-31 -35 -56 -67 -56
-70 0 -19 41 0 75 34 21 21 42 37 46 34 4 -2 10 4 13 14 4 10 23 34 43 53 20
19 33 29 29 22 -6 -12 3 -16 62 -28 55 -11 35 -25 -37 -25 -49 0 -72 -4 -81
-15 -15 -18 1 -20 18 -3 10 10 15 10 20 1 4 -6 27 -13 51 -15 42 -3 46 -6 71
-51 36 -66 48 -75 108 -82 44 -5 60 -2 88 16 19 11 39 29 44 39 16 31 12 102
-9 133 -23 35 -73 67 -106 67 -14 0 -25 5 -25 10 0 14 35 12 73 -4 40 -16 97
-79 98 -109 1 -17 2 -18 6 -4 3 10 14 17 29 17 15 0 23 -4 19 -11 -5 -7 -2 -7
11 0 11 5 27 12 37 15 10 3 16 10 13 14 -3 5 2 9 10 9 10 0 6 -9 -12 -28 -15
-16 -32 -26 -37 -22 -6 3 -7 1 -4 -4 4 -6 -39 -63 -94 -127 -56 -64 -99 -120
-96 -123 4 -3 70 56 148 131 116 112 146 135 163 130 12 -4 22 -10 24 -14 2
-4 16 -3 32 3 23 9 33 8 42 -1 10 -10 0 -24 -43 -70 -244 -252 -368 -386 -363
-394 5 -7 431 397 523 496 13 14 28 23 33 20 5 -3 7 -2 6 3 -4 14 48 63 68 63
15 0 16 2 5 9 -11 7 -10 11 7 20 21 11 52 5 52 -10 0 -5 7 -9 15 -9 8 0 15 -4
15 -10 0 -5 5 -10 11 -10 5 0 7 5 4 10 -3 6 1 10 9 10 9 0 16 -7 16 -15 0 -9
6 -12 16 -8 14 5 15 3 5 -15 -12 -22 -30 -36 -46 -37 -5 0 -9 -7 -8 -15 2 -9
-56 -74 -128 -145 -72 -72 -228 -231 -347 -354 -120 -124 -397 -405 -617 -625
-220 -221 -580 -583 -799 -806 -220 -223 -420 -423 -445 -444 -25 -22 62 70
194 204 132 135 246 248 253 253 7 4 9 13 6 19 -4 6 -3 8 4 4 5 -3 25 12 42
34 20 25 27 40 18 41 -10 0 -10 2 0 6 17 7 15 42 -4 50 -26 10 -41 -14 -25
-40 12 -21 12 -21 -4 -6 -24 23 -11 59 20 59 18 0 26 -7 31 -24 3 -14 3 -30
-1 -35 -25 -41 45 25 285 272 151 155 359 363 463 462 103 99 187 185 187 192
0 6 -46 59 -101 117 -108 114 -204 184 -348 256 l-84 42 -435 -444 c-667 -679
-1045 -1056 -1032 -1028 7 14 336 349 731 745 396 396 719 723 719 727 0 10
-117 47 -200 62 -202 39 -403 27 -599 -36 -108 -34 -160 -59 -278 -131 -83
-50 -93 -60 -72 -72 18 -12 80 -158 86 -205 3 -25 13 -50 21 -56 12 -9 12 -13
2 -19 -7 -4 -16 -2 -20 5 -4 7 -6 -8 -3 -32 8 -70 -25 -196 -84 -318 -28 -57
-104 -160 -118 -160 -8 0 -16 -8 -19 -17 -6 -18 -121 -91 -166 -106 -14 -5
-54 -20 -89 -34 -60 -25 -64 -25 -91 -10 -41 24 -68 21 -101 -12 -42 -43 -40
-90 6 -138 22 -22 35 -46 35 -62 1 -88 92 -380 150 -478 11 -18 16 -33 12 -33
-5 0 -16 -6 -26 -13 -23 -17 -17 -31 68 -142 80 -106 191 -213 293 -282 46
-31 81 -58 79 -61 -3 -2 -38 18 -78 44 -91 60 -289 257 -348 346 l-45 67 -65
-64 -65 -64 -40 66 c-72 121 -142 329 -163 481 l-9 62 79 0 c45 0 78 4 78 10
0 6 -33 10 -80 10 l-80 0 0 30 0 30 73 2 72 2 -74 3 -74 4 7 172 c4 95 9 192
12 217 4 31 3 42 -4 35 -16 -15 -32 -165 -32 -301 l0 -122 -187 -2 c-103 0
-192 -5 -197 -10 -7 -5 -18 -3 -29 5 -16 11 -16 13 -1 19 8 3 33 6 55 6 28 0
39 4 39 15 0 10 15 17 43 22 41 7 41 7 12 14 -45 10 -113 10 -119 0 -3 -4 -17
-6 -32 -3 -38 7 -9 21 46 23 34 0 40 2 25 9 -19 8 -19 9 3 9 13 1 22 7 22 16
0 9 9 15 23 15 47 0 49 17 1 24 -70 9 -84 8 -84 -10 0 -21 -32 -14 -36 9 -2
13 5 17 32 17 19 0 51 7 72 17 l37 16 -30 7 c-29 7 -29 8 8 9 23 1 36 5 32 11
-8 13 -108 13 -121 0 -6 -6 -15 -6 -24 0 -13 9 -13 11 0 20 8 5 23 7 32 4 22
-7 58 13 58 31 0 8 3 14 8 13 4 -2 7 2 7 7 0 6 -22 11 -50 11 -27 1 -102 7
-165 13 -63 6 -131 11 -151 11 l-36 0 -7 -97 c-7 -99 13 -380 34 -493 14 -76
64 -250 98 -340 20 -54 33 -76 47 -79 26 -4 46 -21 39 -32 -3 -5 -14 -5 -25 1
-10 6 -19 7 -19 3 0 -9 114 -241 128 -262 8 -12 24 -2 81 48 41 37 68 68 64
75 -3 6 -3 8 1 4 5 -4 26 11 47 32 22 21 47 41 57 44 20 7 117 115 109 122 -6
6 -120 -61 -137 -81 -7 -8 -20 -15 -29 -15 -9 0 -22 -5 -29 -12 -6 -6 -14 -9
-18 -6 -3 4 14 18 38 32 24 14 68 51 98 82 64 66 50 66 -67 3 -78 -42 -83 -44
-83 -29 0 5 22 21 49 34 61 31 111 73 111 93 0 11 -6 13 -22 8 -13 -4 -42 -12
-65 -18 -24 -5 -43 -16 -43 -23 0 -19 -15 -25 -41 -15 -22 8 -20 10 31 34 53
26 152 97 134 97 -5 -1 -37 -7 -71 -14 -73 -16 -75 -4 -8 36 53 33 59 50 12
37 -18 -5 -46 -10 -62 -12 -17 -3 -43 -10 -59 -16 -48 -19 -66 -7 -21 14 22
10 69 32 105 49 l65 31 -63 3 c-44 2 -69 -2 -84 -13 -13 -8 -36 -15 -53 -15
-29 1 -29 1 -11 15 11 8 27 15 37 15 21 0 139 61 139 72 0 13 -75 9 -122 -6
-24 -8 -63 -17 -88 -20 l-45 -6 40 15 c22 9 54 20 70 24 17 5 44 16 60 25 17
9 35 16 41 16 6 0 18 7 25 17 13 15 8 16 -66 9 -44 -4 -107 -9 -140 -11 -59
-4 -59 -4 -15 6 25 5 64 12 87 15 23 4 41 11 40 16 -4 17 66 48 108 48 l40 0
22 -115 c13 -63 39 -156 58 -207 44 -115 104 -238 116 -238 13 0 13 0 -32 89
-50 100 -104 259 -124 364 -22 115 -26 107 59 107 l73 0 7 -64 c11 -108 73
-312 127 -420 l50 -100 -253 -252 c-139 -138 -296 -295 -348 -349 -94 -96
-1048 -1028 -1166 -1138 -33 -31 -64 -57 -68 -57 -4 0 295 300 665 668 633
629 670 667 641 670 -39 4 -53 32 -16 32 l26 0 -21 33 c-11 17 -26 31 -32 29
-6 -1 -8 2 -4 8 3 5 1 10 -4 10 -6 0 -10 6 -8 13 1 6 -5 12 -13 12 -8 0 -14
-5 -13 -11 1 -6 -5 -11 -13 -11 -11 0 -9 6 7 23 14 14 17 24 9 29 -20 12 -137
259 -178 375 -50 141 -97 320 -111 420 -19 135 -31 338 -24 434 l6 94 -59 4
c-32 2 -62 3 -66 1 -5 -3 -8 -49 -8 -104 l0 -99 43 -2 42 -1 -43 -4 -43 -4 6
-117 c10 -184 23 -282 61 -445 45 -194 59 -244 100 -341 19 -44 32 -81 30 -83
-6 -7 -77 169 -101 252 -64 223 -104 464 -105 633 l0 102 -167 2 -168 2 168 3
167 3 0 104 0 103 -52 6 c-29 4 -118 12 -198 18 -80 6 -147 13 -149 15 -8 8
137 3 264 -10 72 -7 133 -11 136 -10 3 2 9 38 13 81 4 43 14 111 22 152 8 44
10 77 5 81 -5 3 -60 16 -122 29 -62 14 -108 26 -102 28 6 2 62 -7 124 -21 62
-14 113 -25 114 -23 1 1 7 25 14 52 19 82 92 307 97 302 3 -2 -7 -38 -21 -80
-27 -83 -75 -255 -75 -274 0 -6 17 -14 38 -18 20 -3 44 -11 52 -16 11 -8 9 -9
-10 -4 -88 22 -87 22 -99 -36 -15 -67 -36 -247 -30 -252 2 -3 30 -7 61 -11
l57 -6 6 57 c24 222 70 409 151 619 79 206 189 403 322 579 l31 40 -27 29 -27
29 32 -23 32 -23 28 34 c60 74 203 215 296 292 120 100 234 177 390 265 64 36
117 69 117 73 0 4 -14 38 -31 74 -17 37 -28 69 -25 72 3 4 20 -26 37 -65 18
-40 35 -72 40 -72 4 0 37 13 74 30 36 16 139 53 228 81 89 29 167 58 173 66 7
8 13 10 15 4 3 -7 32 -6 90 4 48 8 126 19 175 24 130 14 501 6 609 -13z m945
9 c13 -16 5 -55 -12 -55 -6 0 -5 6 2 16 11 12 10 18 -3 32 -13 13 -19 14 -29
4 -10 -10 -10 -17 1 -33 10 -18 10 -20 -1 -17 -18 6 -22 36 -8 53 16 19 34 19
50 0z m2290 5 c0 -5 -4 -10 -10 -10 -5 0 -10 5 -10 10 0 6 5 10 10 10 6 0 10
-4 10 -10z m230 -14 c0 -3 -4 -8 -10 -11 -5 -3 -10 -1 -10 4 0 6 5 11 10 11 6
0 10 -2 10 -4z m-2802 -24 c2 -7 -6 -12 -17 -12 -21 0 -27 11 -14 24 9 9 26 2
31 -12z m692 -36 c0 -8 3 -23 6 -33 6 -16 4 -15 -16 3 -12 12 -19 27 -16 33
10 16 26 14 26 -3z m-185 -26 c3 -5 1 -10 -4 -10 -6 0 -11 5 -11 10 0 6 2 10
4 10 3 0 8 -4 11 -10z m-535 -55 c18 -21 5 -47 -22 -43 -26 3 -37 36 -16 49
18 12 24 11 38 -6z m1020 0 c0 -8 -4 -15 -10 -15 -5 0 -10 7 -10 15 0 8 5 15
10 15 6 0 10 -7 10 -15z m1074 -86 l5 -54 -9 45 c-5 25 -12 56 -15 70 -4 19
-3 21 4 9 5 -8 12 -40 15 -70z m-1444 26 c-24 -25 -45 -45 -45 -45 -1 0 -2 7
-2 15 0 8 3 12 7 10 4 -2 22 11 40 30 19 19 36 35 39 35 3 0 -15 -20 -39 -45z
m110 5 c0 -5 -16 -10 -35 -10 -19 0 -35 5 -35 10 0 6 16 10 35 10 19 0 35 -4
35 -10z m128 -15 c-2 -2 -15 -1 -28 2 l-25 7 25 6 c22 6 39 -4 28 -15z m-2074
-16 c-8 -14 -24 -10 -24 6 0 9 6 12 15 9 8 -4 12 -10 9 -15z m1191 11 c3 -5 1
-10 -4 -10 -6 0 -11 5 -11 10 0 6 2 10 4 10 3 0 8 -4 11 -10z m584 -43 c-2 -1
-15 -11 -29 -22 l-25 -20 19 23 c11 12 24 22 29 22 6 0 8 -1 6 -3z m61 -17 c0
-5 -4 -10 -10 -10 -5 0 -10 5 -10 10 0 6 5 10 10 10 6 0 10 -4 10 -10z m1700
-4 c0 -3 -4 -8 -10 -11 -5 -3 -10 -1 -10 4 0 6 5 11 10 11 6 0 10 -2 10 -4z
m-4153 -27 c14 -14 6 -39 -12 -39 -15 0 -24 19 -17 38 5 15 15 15 29 1z m1173
-4 c0 -8 -7 -15 -15 -15 -8 0 -15 7 -15 15 0 8 7 15 15 15 8 0 15 -7 15 -15z
m-2037 -44 c27 -46 14 -38 -18 12 -16 23 -22 37 -14 30 8 -6 22 -25 32 -42z
m661 28 c-3 -5 -10 -7 -15 -3 -5 3 -7 10 -3 15 3 5 10 7 15 3 5 -3 7 -10 3
-15z m2536 18 c0 -2 -19 -21 -42 -42 l-43 -40 40 43 c36 39 45 47 45 39z
m1807 -39 c-3 -7 -5 -2 -5 12 0 14 2 19 5 13 2 -7 2 -19 0 -25z m-5098 -63
c47 -66 31 -55 -24 18 -27 34 -40 54 -29 44 12 -9 35 -37 53 -62z m1574 51 c3
-8 3 -24 0 -35 -4 -17 -8 -19 -19 -10 -8 6 -14 19 -14 29 0 30 24 41 33 16z
m3754 -48 c-2 -13 -4 -3 -4 22 0 25 2 35 4 23 2 -13 2 -33 0 -45z m1023 53 c0
-10 -30 -24 -37 -17 -3 3 -2 9 2 15 8 13 35 15 35 2z m-4473 -23 c-3 -8 -6 -5
-6 6 -1 11 2 17 5 13 3 -3 4 -12 1 -19z m-227 -4 c0 -8 -4 -12 -10 -9 -5 3
-10 10 -10 16 0 5 5 9 10 9 6 0 10 -7 10 -16z m75 6 c3 -5 1 -10 -4 -10 -6 0
-11 5 -11 10 0 6 2 10 4 10 3 0 8 -4 11 -10z m1431 -22 c-19 -13 -24 -9 -19
11 4 16 8 17 18 8 9 -9 10 -14 1 -19z m2109 22 c3 -5 -1 -10 -9 -10 -9 0 -16
5 -16 10 0 6 4 10 9 10 6 0 13 -4 16 -10z m-3248 -32 c-3 -7 -5 -2 -5 12 0 14
2 19 5 13 2 -7 2 -19 0 -25z m-517 7 c0 -8 -4 -15 -10 -15 -5 0 -10 7 -10 15
0 8 5 15 10 15 6 0 10 -7 10 -15z m1540 5 c0 -5 -4 -10 -9 -10 -6 0 -13 5 -16
10 -3 6 1 10 9 10 9 0 16 -4 16 -10z m2400 -5 c0 -8 -4 -15 -10 -15 -5 0 -10
7 -10 15 0 8 5 15 10 15 6 0 10 -7 10 -15z m-4020 -16 c0 -5 -4 -9 -10 -9 -5
0 -10 7 -10 16 0 8 5 12 10 9 6 -3 10 -10 10 -16z m3664 -23 c-3 -21 -8 -35
-11 -32 -2 2 -1 20 3 40 3 21 8 35 11 32 2 -2 1 -20 -3 -40z m-5171 -38 c20
-25 37 -48 37 -53 0 -10 -79 85 -91 110 -11 22 -15 26 54 -57z m1427 47 c0 -8
-4 -15 -9 -15 -13 0 -22 16 -14 24 11 11 23 6 23 -9z m1500 11 c0 -3 -4 -8
-10 -11 -5 -3 -10 -1 -10 4 0 6 5 11 10 11 6 0 10 -2 10 -4z m-1580 -31 c0 -8
-4 -15 -10 -15 -5 0 -10 7 -10 15 0 8 5 15 10 15 6 0 10 -7 10 -15z m1867 -17
c-3 -7 -5 -2 -5 12 0 14 2 19 5 13 2 -7 2 -19 0 -25z m2184 -37 c-17 -88 -73
-221 -125 -299 -44 -67 -147 -173 -214 -220 -55 -40 -35 -18 48 52 139 117
229 265 274 446 24 99 35 112 17 21z m-4123 37 c-6 -18 -28 -21 -28 -4 0 9 7
16 16 16 9 0 14 -5 12 -12z m1330 -20 c-6 -18 -28 -21 -28 -4 0 9 7 16 16 16
9 0 14 -5 12 -12z m1232 9 c0 -2 -10 -12 -22 -23 l-23 -19 19 23 c18 21 26 27
26 19z m-3872 -118 c8 -21 -17 -6 -54 34 -68 71 -72 85 -9 28 33 -29 62 -58
63 -62z m1222 95 c0 -8 -4 -12 -10 -9 -5 3 -10 10 -10 16 0 5 5 9 10 9 6 0 10
-7 10 -16z m3733 1 c-3 -9 -8 -14 -10 -11 -3 3 -2 9 2 15 9 16 15 13 8 -4z
m171 -75 c-36 -81 -41 -71 -7 14 15 38 29 63 31 57 2 -5 -9 -38 -24 -71z
m-4397 54 c8 -21 -13 -42 -28 -27 -13 13 -5 43 11 43 6 0 13 -7 17 -16z m421
-2 c2 -7 -3 -12 -12 -12 -9 0 -16 7 -16 16 0 17 22 14 28 -4z m2053 3 c0 -5
-9 -11 -21 -13 -20 -3 -27 8 -13 22 10 9 34 3 34 -9z m-2131 -30 c0 -8 -4 -15
-10 -15 -5 0 -10 7 -10 15 0 8 5 15 10 15 6 0 10 -7 10 -15z m-76 -23 c9 -14
-9 -31 -23 -23 -7 5 -10 14 -7 20 8 13 23 14 30 3z m4150 -34 c-42 -83 -116
-166 -303 -343 -209 -197 -240 -230 -218 -238 6 -2 4 -3 -6 -1 -13 2 -74 -51
-188 -163 -93 -91 -169 -164 -169 -162 0 13 534 542 643 639 123 108 195 192
233 272 10 21 19 36 22 34 2 -2 -4 -19 -14 -38z m-2994 22 c0 -5 -7 -10 -15
-10 -8 0 -15 5 -15 10 0 6 7 10 15 10 8 0 15 -4 15 -10z m910 0 c0 -5 -7 -10
-15 -10 -8 0 -15 5 -15 10 0 6 7 10 15 10 8 0 15 -4 15 -10z m527 -5 c0 -8 -4
-12 -9 -9 -5 3 -6 10 -3 15 9 13 12 11 12 -6z m-3697 -50 c30 -30 52 -55 49
-55 -2 0 -29 25 -59 55 -30 30 -52 55 -49 55 2 0 29 -25 59 -55z m1019 21 c8
-10 9 -16 1 -21 -13 -8 -30 3 -30 21 0 18 14 18 29 0z m971 -11 c0 -8 -4 -15
-10 -15 -5 0 -10 7 -10 15 0 8 5 15 10 15 6 0 10 -7 10 -15z m560 0 c0 -8 -7
-15 -15 -15 -8 0 -15 7 -15 15 0 8 7 15 15 15 8 0 15 -7 15 -15z m-2570 -133
c8 -8 1 -5 -16 6 -18 12 -54 43 -80 68 -48 45 -47 45 16 -7 36 -29 72 -59 80
-67z m1790 108 c0 -5 -7 -10 -16 -10 -8 0 -12 5 -9 10 3 6 10 10 16 10 5 0 9
-4 9 -10z m2050 -3 c0 -8 -7 -14 -15 -14 -11 0 -12 4 -4 14 6 7 13 13 15 13 2
0 4 -6 4 -13z m1952 -74 c-101 -111 -295 -302 -291 -287 6 18 350 374 361 374
6 0 -26 -39 -70 -87z m-4822 61 c0 -8 -4 -12 -10 -9 -5 3 -10 10 -10 16 0 5 5
9 10 9 6 0 10 -7 10 -16z m4231 -1 c-17 -29 -51 -69 -51 -60 0 9 50 77 57 77
2 0 -1 -8 -6 -17z m-4561 -3 c0 -5 -4 -10 -10 -10 -5 0 -10 5 -10 10 0 6 5 10
10 10 6 0 10 -4 10 -10z m254 -36 c9 -22 8 -24 -9 -18 -8 4 -15 12 -15 20 0
19 16 18 24 -2z m451 6 c3 -5 -1 -10 -9 -10 -9 0 -16 5 -16 10 0 6 4 10 9 10
6 0 13 -4 16 -10z m2485 0 c0 -5 -4 -10 -10 -10 -5 0 -10 5 -10 10 0 6 5 10
10 10 6 0 10 -4 10 -10z m-4370 -30 c0 -5 -4 -10 -10 -10 -5 0 -10 5 -10 10 0
6 5 10 10 10 6 0 10 -4 10 -10z m670 6 c0 -2 -8 -10 -17 -17 -16 -13 -17 -12
-4 4 13 16 21 21 21 13z m704 -38 c-3 -5 -12 -4 -20 3 -7 6 -11 15 -8 21 3 5
12 4 20 -3 7 -6 11 -15 8 -21z m2076 7 c-6 -8 -19 -11 -27 -8 -14 5 -14 8 2
19 22 16 40 8 25 -11z m-1450 5 c0 -5 -9 -10 -20 -10 -11 0 -20 5 -20 10 0 6
9 10 20 10 11 0 20 -4 20 -10z m3659 -16 c-36 -38 -155 -110 -229 -137 -72
-27 -159 -42 -142 -25 6 6 22 11 36 11 14 0 24 4 23 9 -2 8 44 29 138 62 l20
8 -20 -13 c-11 -7 -45 -23 -75 -36 -30 -12 -47 -23 -38 -23 48 0 225 96 272
149 11 11 24 21 29 21 6 0 0 -12 -14 -26z m-1649 13 c0 -2 -10 -12 -22 -23
l-23 -19 19 23 c18 21 26 27 26 19z m1350 -7 c0 -5 -4 -10 -10 -10 -5 0 -10 5
-10 10 0 6 5 10 10 10 6 0 10 -4 10 -10z m-4919 -52 l24 -20 -31 17 c-17 10
-41 26 -55 37 l-24 20 31 -17 c17 -10 41 -26 55 -37z m3079 27 c0 -19 -24 -29
-46 -21 -13 5 -14 9 -4 21 16 20 50 19 50 0z m-85 -15 c8 -26 40 -46 87 -54
31 -6 39 -3 52 16 12 17 16 19 16 6 0 -18 -49 -63 -80 -73 -30 -10 -73 16 -93
56 -16 34 -15 69 3 69 5 0 12 -9 15 -20z m-2127 -9 c3 -8 -1 -12 -9 -9 -7 2
-15 10 -17 17 -3 8 1 12 9 9 7 -2 15 -10 17 -17z m2242 -5 c0 -2 -8 -10 -17
-17 -16 -13 -17 -12 -4 4 13 16 21 21 21 13z m-2960 -10 c0 -2 -8 -10 -17 -17
-16 -13 -17 -12 -4 4 13 16 21 21 21 13z m3788 -23 c-5 -25 -28 -28 -28 -4 0
12 6 21 16 21 9 0 14 -7 12 -17z m-3133 -2 c10 -17 -12 -21 -25 -6 -10 12 -10
15 3 15 9 0 18 -4 22 -9z m485 -27 c0 -8 -7 -14 -15 -14 -15 0 -21 21 -9 33
10 9 24 -2 24 -19z m-1314 -61 c-4 -5 -106 66 -106 73 0 2 25 -12 55 -32 30
-21 53 -39 51 -41z m124 47 c-12 -16 -24 -30 -26 -30 -3 0 4 14 16 30 12 17
24 30 26 30 3 0 -4 -13 -16 -30z m395 10 c3 -5 -1 -10 -10 -10 -9 0 -13 5 -10
10 3 6 8 10 10 10 2 0 7 -4 10 -10z m245 -25 c7 -8 8 -15 2 -15 -5 0 -15 7
-22 15 -7 8 -8 15 -2 15 5 0 15 -7 22 -15z m4482 -10 c0 -5 -5 -11 -11 -13 -6
-2 -11 4 -11 13 0 9 5 15 11 13 6 -2 11 -8 11 -13z m-827 -4 c3 -5 1 -13 -5
-16 -15 -9 -43 3 -35 15 8 13 32 13 40 1z m-4382 -98 c-60 -94 -92 -134 -53
-68 34 57 100 155 105 155 3 0 -21 -39 -52 -87z m-135 20 c28 -19 52 -36 52
-39 0 -4 -12 2 -27 12 -82 52 -103 67 -103 71 0 5 4 2 78 -44z m820 28 c3 -8
0 -11 -7 -7 -6 4 -11 1 -11 -6 0 -9 -3 -9 -10 2 -5 8 -10 19 -10 23 0 14 33 3
38 -12z m4742 6 c0 -2 -10 -12 -22 -23 l-23 -19 19 23 c18 21 26 27 26 19z
m-4535 -17 c3 -5 2 -10 -4 -10 -5 0 -13 5 -16 10 -3 6 -2 10 4 10 5 0 13 -4
16 -10z m2797 -32 c-3 -18 -10 -36 -16 -40 -7 -5 -6 -8 3 -8 10 0 7 -8 -10
-27 l-24 -28 27 24 c15 13 25 29 21 35 -3 6 -3 8 2 4 4 -4 29 9 54 29 l46 36
-56 -59 c-40 -43 -56 -68 -58 -91 -1 -19 2 -33 8 -33 6 0 11 -14 11 -32 l0
-31 -23 21 c-30 29 -53 28 -73 -3 -16 -24 -15 -26 7 -44 16 -13 34 -18 52 -15
25 4 33 -4 28 -30 -1 -5 3 -12 10 -16 15 -10 -193 -239 -462 -510 -112 -113
-244 -248 -293 -300 -209 -221 -836 -860 -836 -851 0 3 73 80 162 171 588 598
864 890 852 898 -5 4 -18 27 -29 51 -11 25 -39 79 -62 120 l-43 74 24 32 c13
17 151 154 307 305 156 151 286 278 287 283 2 4 8 7 13 7 6 0 24 13 42 30 18
16 32 30 33 30 0 0 -2 -15 -4 -32z m838 18 c0 -3 -4 -8 -10 -11 -5 -3 -10 -1
-10 4 0 6 5 11 10 11 6 0 10 -2 10 -4z m-3920 -26 c8 -5 11 -12 7 -16 -4 -4
-15 0 -24 9 -18 18 -8 23 17 7z m4660 -25 c0 -2 -10 -9 -22 -15 -22 -11 -22
-10 -4 4 21 17 26 19 26 11z m-5395 -86 c5 -5 6 -9 2 -9 -10 0 -107 61 -107
67 0 5 89 -44 105 -58z m329 40 c-3 -5 -10 -7 -15 -3 -5 3 -7 10 -3 15 3 5 10
7 15 3 5 -3 7 -10 3 -15z m345 12 c12 -8 25 -41 17 -41 -1 0 -13 11 -26 25
-23 25 -18 33 9 16z m236 -11 c3 -5 1 -10 -4 -10 -6 0 -11 5 -11 10 0 6 2 10
4 10 3 0 8 -4 11 -10z m4381 -12 c-33 -19 -136 -57 -136 -50 0 4 31 19 68 33
72 29 99 35 68 17z m-4449 -33 c0 -8 -4 -12 -9 -9 -5 3 -6 10 -3 15 9 13 12
11 12 -6z m-802 -25 c-9 -16 -18 -30 -21 -30 -2 0 2 14 11 30 9 17 18 30 21
30 2 0 -2 -13 -11 -30z m876 7 c-13 -13 -26 -3 -16 12 3 6 11 8 17 5 6 -4 6
-10 -1 -17z m-964 -73 c-4 -5 -157 75 -157 82 0 2 36 -14 81 -37 45 -22 79
-42 76 -45z m683 71 c10 -12 10 -15 -3 -15 -8 0 -20 7 -27 15 -10 12 -10 15 3
15 8 0 20 -7 27 -15z m135 -23 c-6 -7 -35 18 -35 31 0 5 9 2 20 -8 11 -10 18
-20 15 -23z m3255 28 c0 -5 -2 -10 -4 -10 -3 0 -8 5 -11 10 -3 6 -1 10 4 10 6
0 11 -4 11 -10z m1110 -10 c-8 -5 -24 -9 -35 -9 l-20 0 20 9 c11 5 27 9 35 9
13 1 13 0 0 -9z m-100 -14 c0 -3 -4 -8 -10 -11 -5 -3 -10 -1 -10 4 0 6 5 11
10 11 6 0 10 -2 10 -4z m-5082 -153 c-56 -118 -80 -162 -65 -121 5 13 -14 24
-99 58 -58 24 -103 45 -100 47 2 2 50 -15 105 -38 56 -23 103 -40 104 -38 1 2
26 52 54 112 29 59 55 107 57 107 3 0 -23 -57 -56 -127z m632 95 c0 -5 -9 -4
-20 2 -11 6 -18 15 -14 21 6 11 34 -7 34 -23z m3437 2 c-1 -22 -17 -28 -17 -7
0 12 9 27 16 27 2 0 2 -9 1 -20z m1947 -52 c-31 -35 -65 -77 -76 -95 -21 -34
-108 -111 -108 -94 0 10 228 251 237 251 3 0 -21 -28 -53 -62z m-6134 2 c52
-27 91 -49 86 -49 -8 -1 -185 86 -195 95 -15 14 27 -4 109 -46z m5790 35 c0
-8 -4 -15 -10 -15 -5 0 -10 7 -10 15 0 8 5 15 10 15 6 0 10 -7 10 -15z m-1237
-19 c7 -18 -1 -26 -25 -26 -11 0 -18 7 -18 20 0 23 35 28 43 6z m-3852 -21
c-1 -15 -24 -12 -29 3 -3 9 2 13 12 10 10 -1 17 -7 17 -13z m3459 5 c0 -5 -7
-10 -16 -10 -8 0 -12 5 -9 10 3 6 10 10 16 10 5 0 9 -4 9 -10z m-136 -15 c-4
-8 -11 -15 -16 -15 -6 0 -5 6 2 15 7 8 14 15 16 15 2 0 1 -7 -2 -15z m2229
-40 c1 -5 -6 -11 -15 -13 -11 -2 -18 3 -18 13 0 17 30 18 33 0z m-686 -39 c28
-30 33 -43 33 -83 -1 -57 -16 -87 -56 -114 -87 -57 -194 16 -182 125 13 112
131 153 205 72z m-4907 12 c0 -13 -23 -5 -28 10 -2 7 2 10 12 6 9 -3 16 -11
16 -16z m140 2 c0 -5 -2 -10 -4 -10 -3 0 -8 5 -11 10 -3 6 -1 10 4 10 6 0 11
-4 11 -10z m-917 -108 c65 -26 114 -48 110 -49 -4 -2 -71 22 -148 53 -77 30
-126 52 -110 49 17 -4 83 -27 148 -53z m737 48 c8 -5 12 -12 9 -15 -8 -8 -39
5 -39 16 0 11 11 11 30 -1z m-30 -70 c0 -5 -7 -10 -15 -10 -8 0 -15 5 -15 10
0 6 7 10 15 10 8 0 15 -4 15 -10z m3600 -5 c0 -8 -4 -15 -10 -15 -5 0 -10 7
-10 15 0 8 5 15 10 15 6 0 10 -7 10 -15z m208 1 c-7 -8 -15 -12 -17 -11 -5 6
10 25 20 25 5 0 4 -6 -3 -14z m153 -54 c-28 -32 -51 -64 -51 -71 0 -8 -7 -10
-19 -6 -14 4 -21 0 -25 -13 -4 -11 -17 -28 -29 -38 l-22 -19 19 23 c11 12 15
22 11 22 -5 0 -4 5 3 12 17 17 15 53 -3 68 -8 7 -15 17 -15 23 0 6 13 -1 28
-16 15 -15 33 -27 38 -27 5 0 32 23 59 50 27 28 51 50 53 50 2 0 -19 -26 -47
-58z m-4169 -24 c-4 -4 -13 -4 -20 1 -11 6 -11 13 0 36 l12 27 8 -28 c4 -16 4
-32 0 -36z m4308 52 c0 -5 -7 -10 -16 -10 -8 0 -12 5 -9 10 3 6 10 10 16 10 5
0 9 -4 9 -10z m-105 -212 c-312 -318 -379 -384 -320 -318 73 82 523 540 531
540 4 0 -91 -100 -211 -222z m-2715 202 c0 -5 -4 -10 -10 -10 -5 0 -10 5 -10
10 0 6 5 10 10 10 6 0 10 -4 10 -10z m2472 -17 c-11 -16 -30 -37 -43 -48 -12
-11 -5 1 16 28 43 52 57 63 27 20z m-3786 -17 c22 -23 -1 -28 -27 -6 -21 17
-22 19 -6 20 10 0 25 -6 33 -14z m-683 -22 c43 -14 77 -28 74 -30 -2 -2 -41 9
-88 25 -46 16 -80 30 -74 30 5 1 45 -11 88 -25z m2717 -5 c0 -5 -7 -9 -15 -9
-15 0 -20 12 -9 23 8 8 24 -1 24 -14z m-2259 -22 c-8 -8 -11 -7 -11 4 0 20 13
34 18 19 3 -7 -1 -17 -7 -23z m1359 13 c0 -11 -6 -20 -14 -20 -18 0 -29 16
-21 30 11 18 35 11 35 -10z m-1040 -12 c0 -11 -12 -10 -30 2 -12 7 -10 9 8 7
12 0 22 -5 22 -9z m4551 3 c4 7 11 10 14 7 10 -10 -4 -28 -21 -28 -8 0 -14 8
-13 18 0 12 2 13 6 3 4 -11 7 -11 14 0z m-4671 -23 c0 -6 -6 -5 -15 2 -8 7
-15 14 -15 16 0 2 7 1 15 -2 8 -4 15 -11 15 -16z m4010 1 c0 -5 -4 -9 -10 -9
-5 0 -10 7 -10 16 0 8 5 12 10 9 6 -3 10 -10 10 -16z m-4701 -61 c63 -17 110
-33 103 -36 -11 -3 -221 55 -231 64 -9 8 15 3 128 -28z m671 22 c0 -5 -4 -10
-10 -10 -5 0 -10 5 -10 10 0 6 5 10 10 10 6 0 10 -4 10 -10z m130 0 c0 -5 -4
-10 -10 -10 -5 0 -10 5 -10 10 0 6 5 10 10 10 6 0 10 -4 10 -10z m3871 -33
c-13 -13 -26 -3 -16 12 3 6 11 8 17 5 6 -4 6 -10 -1 -17z m-1401 -7 c0 -5 -4
-10 -10 -10 -5 0 -10 5 -10 10 0 6 5 10 10 10 6 0 10 -4 10 -10z m-2620 -15
c0 -8 -4 -15 -9 -15 -5 0 -14 7 -21 15 -10 13 -9 15 9 15 12 0 21 -6 21 -15z
m4910 1 c0 -3 -4 -8 -10 -11 -5 -3 -10 -1 -10 4 0 6 5 11 10 11 6 0 10 -2 10
-4z m-940 -57 c0 -4 -13 0 -29 9 -19 11 -26 19 -18 24 11 7 47 -18 47 -33z
m910 21 c0 -5 -4 -10 -10 -10 -5 0 -10 5 -10 10 0 6 5 10 10 10 6 0 10 -4 10
-10z m-1020 -9 c0 -12 -20 -25 -27 -18 -7 7 6 27 18 27 5 0 9 -4 9 -9z m677
-38 c-20 -21 -81 -84 -135 -140 -54 -57 -103 -103 -107 -103 -4 0 55 63 131
140 76 77 140 140 143 140 3 0 -11 -17 -32 -37z m-4562 18 c3 -5 1 -12 -4 -15
-13 -8 -42 4 -35 15 7 12 31 12 39 0z m4445 -6 c0 -8 -9 -15 -20 -15 -20 0
-26 11 -13 23 12 13 33 7 33 -8z m430 5 c0 -5 -5 -10 -11 -10 -5 0 -7 5 -4 10
3 6 8 10 11 10 2 0 4 -4 4 -10z m-162 -22 c-3 -7 -11 -13 -18 -13 -7 0 -15 6
-17 13 -3 7 4 12 17 12 13 0 20 -5 18 -12z m-4628 -8 c0 -5 -4 -10 -9 -10 -6
0 -13 5 -16 10 -3 6 1 10 9 10 9 0 16 -4 16 -10z m4760 0 c0 -5 -5 -10 -11
-10 -5 0 -7 5 -4 10 3 6 8 10 11 10 2 0 4 -4 4 -10z m50 -10 c0 -5 -5 -10 -11
-10 -5 0 -7 5 -4 10 3 6 8 10 11 10 2 0 4 -4 4 -10z m848 -60 c-21 -17 -23
-17 -39 4 -15 18 -15 22 -3 29 8 4 14 16 14 25 0 13 6 10 25 -12 l24 -28 -21
-18z m-5763 21 c3 -5 1 -12 -4 -15 -13 -8 -42 4 -35 15 7 12 31 12 39 0z
m3114 5 c-2 -2 -15 -9 -29 -15 -24 -11 -24 -11 -6 3 16 13 49 24 35 12z m1701
-6 c0 -5 -5 -10 -11 -10 -5 0 -7 5 -4 10 3 6 8 10 11 10 2 0 4 -4 4 -10z
m-4733 -6 c-3 -3 -12 -4 -19 -1 -8 3 -5 6 6 6 11 1 17 -2 13 -5z m-870 -20
c-3 -3 -12 -4 -19 -1 -8 3 -5 6 6 6 11 1 17 -2 13 -5z m3893 -4 c-8 -5 -19
-10 -25 -10 -5 0 -3 5 5 10 8 5 20 10 25 10 6 0 3 -5 -5 -10z m2023 -35 c-25
-20 -33 -18 -33 5 0 25 43 46 48 23 2 -8 -5 -21 -15 -28z m-5750 13 c27 -5 47
-12 45 -14 -2 -2 -47 5 -99 16 -52 11 -71 17 -44 14 28 -3 72 -10 98 -16z
m3743 3 c-8 -12 -46 -21 -46 -11 0 5 10 11 23 13 12 2 23 5 25 6 2 0 1 -3 -2
-8z m1694 -6 c0 -8 -4 -15 -10 -15 -5 0 -10 7 -10 15 0 8 5 15 10 15 6 0 10
-7 10 -15z m-4840 -25 c0 -5 -9 -10 -20 -10 -11 0 -20 5 -20 10 0 6 9 10 20
10 11 0 20 -4 20 -10z m2710 -35 c0 -33 -14 -39 -50 -20 -40 21 -39 43 3 47
42 4 47 2 47 -27z m1140 25 c0 -5 -2 -10 -4 -10 -3 0 -8 5 -11 10 -3 6 -1 10
4 10 6 0 11 -4 11 -10z m1000 -30 c0 -5 -5 -10 -11 -10 -5 0 -7 5 -4 10 3 6 8
10 11 10 2 0 4 -4 4 -10z m450 -5 c0 -8 -4 -15 -10 -15 -5 0 -10 7 -10 15 0 8
5 15 10 15 6 0 10 -7 10 -15z m-5879 -44 c33 -13 11 -12 -106 4 l-100 14 91
-4 c50 -3 102 -9 115 -14z m569 10 c0 -19 -22 -23 -38 -7 -15 15 -14 16 11 16
15 0 27 -4 27 -9z m5427 -27 c5 -15 -11 -33 -30 -34 -15 0 -20 32 -6 41 20 13
29 11 36 -7z m-1241 -71 c-2 -3 -15 2 -28 11 l-22 16 22 0 c14 0 23 7 23 18 1
9 4 4 6 -11 3 -16 2 -31 -1 -34z m144 22 c-19 -19 -39 -35 -44 -35 -12 1 59
70 71 70 4 0 -8 -16 -27 -35z m-4355 4 c11 -17 -1 -21 -37 -13 -32 7 -32 8 -8
15 36 10 38 10 45 -2z m5085 2 c0 -12 -20 -25 -27 -18 -7 7 6 27 18 27 5 0 9
-4 9 -9z m-390 -45 c0 -3 -4 -8 -10 -11 -5 -3 -10 -1 -10 4 0 6 5 11 10 11 6
0 10 -2 10 -4z m-1800 -16 c0 -5 -4 -10 -10 -10 -5 0 -10 5 -10 10 0 6 5 10
10 10 6 0 10 -4 10 -10z m1400 -5 c-7 -9 -15 -13 -17 -11 -7 7 7 26 19 26 6 0
6 -6 -2 -15z m-4310 -5 c0 -5 -7 -10 -15 -10 -8 0 -15 5 -15 10 0 6 7 10 15
10 8 0 15 -4 15 -10z m3839 -82 c-98 -108 -408 -422 -388 -393 16 23 461 485
467 485 2 0 -33 -41 -79 -92z m1756 72 c3 -5 -1 -10 -10 -10 -9 0 -13 5 -10
10 3 6 8 10 10 10 2 0 7 -4 10 -10z m-1595 -15 c10 -12 10 -19 2 -27 -15 -15
-43 8 -35 28 7 18 17 18 33 -1z m162 -117 c-64 -65 -119 -118 -122 -118 -3 0
41 48 97 106 57 58 103 111 103 118 0 6 9 12 20 12 13 0 -15 -34 -98 -118z
m-4562 97 c0 -8 -4 -15 -9 -15 -13 0 -22 16 -14 24 11 11 23 6 23 -9z m5070
-9 c0 -3 -4 -8 -10 -11 -5 -3 -10 -1 -10 4 0 6 5 11 10 11 6 0 10 -2 10 -4z
m-60 -10 c0 -3 -4 -8 -10 -11 -5 -3 -10 -1 -10 4 0 6 5 11 10 11 6 0 10 -2 10
-4z m-5140 -35 c0 -9 -219 -3 -229 5 -2 2 48 4 112 4 66 0 117 -4 117 -9z
m4403 -88 c-43 -48 -163 -173 -268 -278 -199 -199 -175 -168 55 70 74 77 168
175 208 218 40 42 75 77 78 77 3 0 -29 -39 -73 -87z m1077 83 c0 -3 -4 -8 -10
-11 -5 -3 -10 -1 -10 4 0 6 5 11 10 11 6 0 10 -2 10 -4z m-1302 -78 c-5 -15
-35 -34 -43 -27 -3 4 -3 14 1 23 7 18 48 23 42 4z m1243 -81 c-13 -13 -26 -3
-16 12 3 6 11 8 17 5 6 -4 6 -10 -1 -17z m-5121 -25 c0 -13 -12 -22 -22 -16
-10 6 -1 24 13 24 5 0 9 -4 9 -8z m3406 -45 c-4 -28 -13 -75 -21 -102 -15 -51
-15 -46 7 83 13 83 23 97 14 19z m-4058 21 c7 -7 12 -24 12 -38 0 -33 -17 -50
-50 -50 -33 0 -50 17 -50 50 0 33 17 50 50 50 14 0 31 -5 38 -12z m5176 -30
c-22 -24 -55 -56 -74 -72 -21 -18 -13 -6 20 29 54 58 81 84 89 85 2 0 -14 -19
-35 -42z m136 38 c0 -3 -4 -8 -10 -11 -5 -3 -10 -1 -10 4 0 6 5 11 10 11 6 0
10 -2 10 -4z m-4960 -26 c0 -6 -50 -9 -132 -8 -123 2 -127 2 -53 8 133 11 185
11 185 0z m2454 -35 c-4 -8 -7 -15 -9 -15 -2 0 -5 7 -9 15 -3 9 0 15 9 15 9 0
12 -6 9 -15z m2085 -105 c1 -85 -20 -257 -39 -334 -44 -170 -158 -403 -273
-558 -101 -137 -168 -204 -312 -317 -240 -187 -504 -281 -863 -306 l-103 -8
20 34 c11 19 29 52 39 74 11 22 35 60 55 85 20 24 33 48 30 54 -3 5 -1 6 5 2
7 -4 12 -3 12 2 0 5 21 12 48 16 83 11 272 67 265 79 -4 6 0 8 10 4 9 -3 17
-3 19 2 2 4 39 20 82 35 44 15 109 46 144 67 173 105 406 350 490 516 70 137
131 358 154 554 7 68 14 96 19 84 4 -11 8 -15 8 -9 1 12 145 39 160 30 6 -4
11 -1 12 6 0 7 4 4 9 -7 5 -11 9 -58 9 -105z m701 90 c0 -5 -2 -10 -4 -10 -3
0 -8 5 -11 10 -3 6 -1 10 4 10 6 0 11 -4 11 -10z m-4328 -35 l-4 -25 -172 0
c-95 0 -176 3 -179 7 -4 3 3 13 16 22 17 12 57 17 177 21 85 3 158 4 161 3 4
-2 4 -14 1 -28z m-632 -6 c0 -5 -7 -9 -15 -9 -15 0 -20 12 -9 23 8 8 24 -1 24
-14z m5299 -9 c40 -21 31 -80 -12 -80 -47 0 -67 40 -37 70 23 23 25 23 49 10z
m-5569 -9 c0 -4 -34 -11 -77 -15 -122 -10 -147 -4 -38 9 55 7 103 13 108 14 4
0 7 -3 7 -8z m560 -21 c11 -7 0 -10 -37 -10 -29 0 -53 5 -53 10 0 13 70 13 90
0z m-787 -7 c-7 -2 -19 -2 -25 0 -7 3 -2 5 12 5 14 0 19 -2 13 -5z m5321 -48
c12 -33 5 -57 -23 -86 -16 -16 -39 -29 -51 -29 -28 0 -70 43 -70 73 0 31 34
75 63 79 28 5 73 -16 81 -37z m-1440 -9 c-3 -15 -8 -25 -11 -23 -2 3 -1 17 3
31 3 15 8 25 11 23 2 -3 1 -17 -3 -31z m1136 10 c0 -3 -4 -8 -10 -11 -5 -3
-10 -1 -10 4 0 6 5 11 10 11 6 0 10 -2 10 -4z m1191 -6 c25 -14 24 -52 -1 -75
-42 -38 -100 25 -59 66 22 22 32 23 60 9z m-6001 -40 c-19 -5 -66 -11 -105
-14 l-70 -5 70 13 c39 8 86 14 105 14 l35 0 -35 -8z m3629 -87 c-17 -43 -38
-85 -46 -93 -8 -8 -4 8 10 35 13 28 32 71 42 98 10 26 20 46 22 43 2 -2 -10
-39 -28 -83z m1012 -18 c-20 -23 -31 -46 -31 -66 0 -27 -2 -29 -15 -15 -21 21
-20 25 27 73 51 52 62 56 19 8z m-4680 -16 c-47 -11 -92 -18 -100 -16 -19 3
122 35 159 35 14 0 -13 -9 -59 -19z m6132 5 c19 -7 18 -25 -1 -32 -7 -2 -15 5
-19 15 -3 10 -11 22 -17 26 -7 5 -5 6 4 3 8 -3 23 -9 33 -12z m-1183 -30 c0
-8 -5 -12 -10 -9 -6 4 -8 11 -5 16 9 14 15 11 15 -7z m-5073 0 c-3 -3 -12 -4
-19 -1 -8 3 -5 6 6 6 11 1 17 -2 13 -5z m4725 -46 c-7 -7 -12 -8 -12 -2 0 14
12 26 19 19 2 -3 -1 -11 -7 -17z m1152 -333 c-181 -184 -330 -335 -332 -335
-5 0 131 143 427 447 119 123 220 223 224 223 5 0 -139 -151 -319 -335z
m-5689 305 c-3 -5 -16 -10 -28 -9 -21 0 -21 1 -2 9 28 12 37 12 30 0z m5004
-4 c-408 -413 -603 -606 -612 -606 -6 0 127 137 295 305 169 168 310 305 314
305 4 0 5 -2 3 -4z m-2604 -184 c-77 -75 -101 -96 -54 -47 48 50 108 113 135
142 27 28 51 49 54 47 2 -3 -59 -66 -135 -142z m-1775 128 c0 -14 -24 -23 -47
-17 -15 3 -14 6 7 15 32 14 40 14 40 2z m4080 -44 c0 -2 -8 -10 -17 -17 -16
-13 -17 -12 -4 4 13 16 21 21 21 13z m-1781 -65 c-18 -54 -22 -61 -31 -61 -6
0 -8 14 -3 36 l6 37 -42 -37 c-23 -20 -65 -61 -92 -91 -27 -31 -52 -54 -54
-51 -3 3 43 54 101 113 80 81 109 105 115 94 5 -7 5 -25 0 -40z m1697 -23
c-26 -29 -59 -65 -74 -79 -15 -15 -90 -90 -168 -168 -78 -77 -145 -141 -150
-141 -4 0 6 12 23 28 17 15 78 79 136 143 98 108 104 117 89 133 -15 15 -14
16 9 16 23 0 25 3 22 33 -4 29 -3 30 10 15 20 -26 29 -23 89 26 29 25 55 45
57 45 2 1 -17 -23 -43 -51z m681 30 c20 -26 9 -68 -21 -83 -37 -19 -42 -19
-64 6 -35 36 -6 89 49 89 14 0 31 -6 36 -12z m848 -42 c31 -46 -25 -97 -66
-60 -21 19 -24 36 -9 65 15 27 56 24 75 -5z m-6387 -250 c-120 -118 -218 -216
-218 -220 0 -3 17 -7 38 -8 29 -1 26 -2 -18 -7 -30 -3 -71 -4 -90 -2 l-35 5
45 9 c41 8 65 28 265 223 121 117 222 213 225 213 3 0 -93 -96 -212 -213z
m3302 195 c56 -25 72 -56 54 -107 -17 -48 -17 -47 -1 -39 6 4 1 -3 -12 -14
-12 -12 -28 -18 -34 -14 -6 3 -7 1 -3 -5 6 -11 -69 -64 -128 -90 -24 -11 -32
-10 -55 5 -14 9 -32 16 -38 15 -7 -2 -13 4 -13 13 0 8 4 15 9 15 4 0 9 27 10
61 2 59 28 136 54 158 11 9 46 16 93 20 12 0 41 -7 64 -18z m280 -11 c0 -5 -2
-10 -4 -10 -3 0 -8 5 -11 10 -3 6 -1 10 4 10 6 0 11 -4 11 -10z m-2321 -130
c-84 -91 -123 -128 -88 -82 38 48 164 182 172 182 5 0 -33 -45 -84 -100z
m4103 33 c-90 -101 -293 -297 -327 -317 -16 -9 42 52 130 136 87 84 179 174
204 201 66 71 62 57 -7 -20z m-3788 41 c7 -19 -1 -34 -19 -34 -18 0 -28 17
-21 35 7 20 32 19 40 -1z m2674 -11 c2 -8 -5 -13 -17 -13 -12 0 -21 6 -21 16
0 18 31 15 38 -3z m-1873 -113 c-66 -66 -122 -120 -125 -120 -2 0 49 54 115
120 66 66 122 120 125 120 2 0 -49 -54 -115 -120z m1905 110 c0 -5 -4 -10 -10
-10 -5 0 -10 5 -10 10 0 6 5 10 10 10 6 0 10 -4 10 -10z m-780 -10 c0 -5 -4
-10 -10 -10 -5 0 -10 5 -10 10 0 6 5 10 10 10 6 0 10 -4 10 -10z m1595 1 c3
-5 1 -12 -5 -16 -5 -3 -10 1 -10 9 0 18 6 21 15 7z m1955 -21 c0 -5 -2 -10 -4
-10 -3 0 -8 5 -11 10 -3 6 -1 10 4 10 6 0 11 -4 11 -10z m-3580 -6 c0 -3 -7
-12 -15 -21 -20 -19 -32 -10 -14 11 14 15 29 21 29 10z m-2636 -55 c-8 -14
-21 -11 -21 5 0 8 6 12 14 9 7 -3 10 -9 7 -14z m2590 0 c-6 -11 -24 -2 -24 11
0 5 7 7 15 4 8 -4 12 -10 9 -15z m-35 -26 c-7 -7 -24 -23 -39 -33 -25 -18 -29
-18 -40 -5 -11 13 -10 14 5 9 11 -5 21 -1 27 10 5 9 13 14 19 11 8 -6 13 8 10
27 0 4 6 5 14 1 12 -4 13 -8 4 -20z m361 3 c0 -2 -7 -9 -15 -16 -12 -10 -15
-10 -15 4 0 9 7 16 15 16 8 0 15 -2 15 -4z m425 -36 c-3 -5 -11 -10 -16 -10
-6 0 -7 5 -4 10 3 6 11 10 16 10 6 0 7 -4 4 -10z m1635 -4 c0 -3 -4 -8 -10
-11 -5 -3 -10 -1 -10 4 0 6 5 11 10 11 6 0 10 -2 10 -4z m-4594 -34 c13 -9 34
-46 34 -62 0 -20 -49 -60 -75 -60 -54 0 -85 71 -48 112 16 18 68 24 89 10z
m2508 -8 c7 -19 -1 -34 -19 -34 -18 0 -28 17 -21 35 7 20 32 19 40 -1z m-414
-4 c6 -4 -2 -7 -17 -7 -15 0 -39 -5 -53 -11 -14 -5 -29 -9 -33 -8 -5 0 -13 -7
-18 -16 -5 -9 -23 -20 -40 -23 -20 -5 -27 -10 -19 -15 7 -4 0 -7 -17 -7 -15
-1 -68 -15 -118 -33 -49 -17 -123 -38 -163 -46 -87 -17 -85 -16 -78 -5 3 4 28
11 56 15 103 14 267 74 348 128 27 19 42 24 42 16 0 -8 5 -6 11 4 10 18 75 23
99 8z m1516 -37 c-10 -10 -19 5 -10 18 6 11 8 11 12 0 2 -7 1 -15 -2 -18z
m-4766 -3 c-19 -13 -30 -13 -30 0 0 6 10 10 23 10 18 0 19 -2 7 -10z m3562
-37 c-17 -21 -78 -84 -136 -141 -58 -57 -104 -107 -101 -112 3 -5 -4 -10 -15
-12 -12 -2 -99 -82 -195 -178 -96 -96 -175 -170 -175 -164 0 6 70 85 156 175
l156 164 -33 6 -34 6 41 2 c38 1 48 8 178 141 76 77 141 140 144 140 3 0 -12
-18 -33 -40 -21 -22 -35 -40 -29 -40 5 0 30 20 54 45 54 55 62 58 22 8z m1152
16 c-3 -5 -10 -7 -15 -3 -5 3 -7 10 -3 15 3 5 10 7 15 3 5 -3 7 -10 3 -15z
m-1294 -5 c11 -12 10 -18 -3 -31 -8 -9 -23 -13 -31 -10 -19 8 -21 43 -3 50 20
9 24 8 37 -9z m1929 -10 c14 13 16 12 18 -7 3 -39 16 -82 27 -90 6 -5 1 -7
-12 -4 -17 4 -22 2 -18 -8 4 -12 0 -12 -19 -3 -19 8 -28 8 -40 -2 -13 -10 -15
-9 -15 9 0 11 -9 30 -20 41 -23 23 -25 30 -7 30 8 0 19 11 27 24 11 22 14 23
28 10 13 -13 16 -13 31 0z m-3204 -13 c-3 -6 -11 -11 -16 -11 -5 0 -4 6 3 14
14 16 24 13 13 -3z m-1817 -43 c3 -22 -2 -29 -22 -34 -30 -7 -46 1 -46 25 0
46 63 55 68 9z m1580 -195 c-118 -120 -238 -243 -268 -273 -40 -42 -44 -44
-15 -10 62 73 479 499 489 500 5 0 -87 -98 -206 -217z m642 196 c101 -45 154
-127 154 -234 0 -83 -21 -132 -82 -187 -144 -130 -371 -61 -413 126 -21 94 19
208 93 266 66 51 171 64 248 29z m1270 1 c0 -5 -4 -10 -9 -10 -6 0 -13 5 -16
10 -3 6 1 10 9 10 9 0 16 -4 16 -10z m680 0 c0 -5 -4 -10 -10 -10 -5 0 -10 5
-10 10 0 6 5 10 10 10 6 0 10 -4 10 -10z m-4256 -25 c3 -8 1 -15 -4 -15 -6 0
-10 7 -10 15 0 8 2 15 4 15 2 0 6 -7 10 -15z m6026 12 c0 -2 -10 -12 -22 -23
l-23 -19 19 23 c18 21 26 27 26 19z m-3235 -28 c4 -6 -3 -20 -16 -32 -19 -18
-22 -19 -16 -3 4 10 7 24 7 32 0 17 16 19 25 3z m2070 1 c3 -5 1 -10 -4 -10
-6 0 -11 5 -11 10 0 6 2 10 4 10 3 0 8 -4 11 -10z m1115 -23 c0 -1 -60 -61
-132 -132 l-133 -130 130 133 c120 123 135 137 135 129z m-800 -11 c0 -3 -4
-8 -10 -11 -5 -3 -10 -1 -10 4 0 6 5 11 10 11 6 0 10 -2 10 -4z m-4950 -9 c0
-2 -10 -12 -22 -23 l-23 -19 19 23 c18 21 26 27 26 19z m745 -19 c32 -7 -97
-14 -135 -7 -28 5 -22 7 27 8 34 0 65 6 69 12 4 7 9 8 13 1 3 -5 15 -12 26
-14z m3626 5 c13 -16 12 -17 -3 -4 -10 7 -18 15 -18 17 0 8 8 3 21 -13z m-492
4 c-2 -2 -26 -23 -54 -47 l-50 -43 47 47 c26 25 50 46 54 46 4 0 5 -1 3 -3z
m-2639 -49 c0 -16 -3 -19 -11 -11 -6 6 -8 16 -5 22 11 17 16 13 16 -11z m2780
1 c-19 -5 -46 -12 -60 -15 -23 -5 -23 -4 -7 8 9 7 36 14 60 15 l42 1 -35 -9z
m-90 -22 c0 -2 -15 -13 -32 -26 l-33 -22 28 25 c26 24 37 31 37 23z m261 -15
c34 -23 61 -50 88 -90 36 -51 19 -48 -18 4 -18 25 -51 57 -72 71 -21 14 -39
27 -39 29 0 9 16 3 41 -14z m-214 -24 c-3 -8 -6 -5 -6 6 -1 11 2 17 5 13 3 -3
4 -12 1 -19z m-2806 -1 c-6 -8 -7 -18 -3 -22 4 -5 2 -5 -4 -2 -9 5 -181 -168
-237 -240 -18 -22 -18 -23 7 -35 14 -6 26 -15 26 -19 0 -9 -86 -39 -111 -39
-9 0 -60 -40 -113 -90 -52 -49 -99 -90 -103 -90 -5 0 1 7 12 16 18 13 -5 15
-219 14 -131 -1 -241 1 -244 4 -7 7 -14 7 260 6 l227 -1 71 72 c38 40 70 76
70 81 0 4 -13 8 -29 8 -42 0 -66 10 -49 21 7 5 22 9 32 9 11 0 38 8 60 19 23
10 56 24 74 31 19 8 81 64 154 141 66 71 123 129 126 129 2 0 -1 -6 -7 -13z
m1152 -4 c-7 -2 -19 -2 -25 0 -7 3 -2 5 12 5 14 0 19 -2 13 -5z m345 0 c-26
-2 -71 -2 -100 0 -29 2 -8 3 47 3 55 0 79 -1 53 -3z m2334 -20 c23 -21 23 -45
-1 -67 -42 -38 -94 22 -56 64 22 24 33 25 57 3z m-805 -3 c40 -15 70 -57 78
-114 18 -119 -127 -251 -223 -202 -56 29 -108 91 -118 141 -8 46 13 125 34
125 8 0 12 3 8 7 -3 4 17 17 46 29 57 25 127 30 175 14z m228 -10 c0 -22 -29
-18 -33 3 -3 14 1 18 15 15 10 -2 18 -10 18 -18z m-5078 -79 c-13 -48 -2 -66
54 -83 46 -13 49 -23 12 -33 -51 -12 -73 -33 -73 -69 0 -29 -3 -33 -20 -29
-12 3 -29 -2 -41 -13 -21 -19 -21 -19 -14 19 9 45 -3 63 -60 88 l-39 18 27 10
c87 34 80 27 74 77 -4 42 -4 44 12 29 23 -20 34 -19 56 5 10 11 19 20 20 20 1
0 -2 -18 -8 -39z m4380 -8 c-3 -10 -5 -4 -5 12 0 17 2 24 5 18 2 -7 2 -21 0
-30z m131 26 c-2 -6 -8 -10 -13 -10 -5 0 -11 4 -13 10 -2 6 4 11 13 11 9 0 15
-5 13 -11z m-7 -205 c19 -37 39 -57 79 -81 30 -18 47 -33 38 -33 -28 0 -102
64 -127 110 -19 33 -25 61 -27 119 l-3 76 8 -71 c4 -45 17 -90 32 -120z m469
155 c0 -5 -4 -9 -10 -9 -5 0 -10 7 -10 16 0 8 5 12 10 9 6 -3 10 -10 10 -16z
m-603 -41 c-3 -7 -5 -2 -5 12 0 14 2 19 5 13 2 -7 2 -19 0 -25z m1733 19 c0
-1 -145 -146 -322 -322 l-323 -320 320 323 c297 299 325 327 325 319z m-4700
-11 c0 -3 -4 -8 -10 -11 -5 -3 -10 -1 -10 4 0 6 5 11 10 11 6 0 10 -2 10 -4z
m2650 -20 c0 -7 -8 -20 -17 -27 -15 -12 -16 -12 -10 4 4 10 7 23 7 28 0 5 5 9
10 9 6 0 10 -6 10 -14z m1640 -33 c-33 -39 -1370 -1392 -1919 -1943 l-304
-305 279 290 c463 481 621 642 1298 1321 357 358 653 659 658 668 6 10 12 15
15 12 3 -3 -9 -22 -27 -43z m-3012 -180 c-120 -119 -218 -219 -218 -221 0 -3
-71 -77 -158 -166 -88 -89 -224 -230 -303 -313 -102 -109 -151 -153 -166 -153
-13 0 -23 3 -23 7 0 6 223 238 227 235 1 0 32 31 70 71 160 170 377 385 385
381 4 -3 8 1 8 9 0 8 28 39 63 69 34 29 63 56 65 60 6 12 252 238 260 238 4 0
-91 -98 -210 -217z m1743 160 c48 6 52 -8 4 -17 -19 -4 -35 -9 -35 -12 0 -18
49 -95 88 -137 39 -42 42 -47 14 -27 -57 42 -123 162 -120 220 1 22 1 22 5 -4
4 -27 7 -28 44 -23z m703 -18 c3 -8 1 -15 -4 -15 -6 0 -10 7 -10 15 0 8 2 15
4 15 2 0 6 -7 10 -15z m-1314 -39 c0 -3 -4 -8 -10 -11 -5 -3 -10 -1 -10 4 0 6
5 11 10 11 6 0 10 -2 10 -4z m830 -21 c0 -8 -4 -15 -10 -15 -5 0 -7 7 -4 15 4
8 8 15 10 15 2 0 4 -7 4 -15z m-3823 -27 c31 -29 30 -72 -2 -103 -13 -14 -31
-25 -40 -25 -20 0 -57 19 -67 34 -15 22 -8 70 14 93 27 29 65 29 95 1z m943
19 c0 -2 -12 -14 -27 -28 l-28 -24 24 28 c23 25 31 32 31 24z m1605 -47 c3 -5
1 -10 -4 -10 -6 0 -11 5 -11 10 0 6 2 10 4 10 3 0 8 -4 11 -10z m-1525 -4 c0
-3 -4 -8 -10 -11 -5 -3 -10 -1 -10 4 0 6 5 11 10 11 6 0 10 -2 10 -4z m1830
-6 c0 -5 -4 -10 -10 -10 -5 0 -10 5 -10 10 0 6 5 10 10 10 6 0 10 -4 10 -10z
m-565 -60 c0 -33 -40 -41 -50 -11 -9 28 2 43 28 39 16 -2 22 -10 22 -28z
m-1547 -106 c-62 -69 -115 -130 -117 -136 -2 -6 4 -15 13 -20 26 -14 21 -42
-6 -34 -13 4 -28 8 -33 9 -6 1 -45 -35 -88 -80 -42 -46 -77 -80 -77 -77 0 3
33 42 74 87 41 45 133 148 206 230 72 81 134 147 136 147 3 0 -46 -57 -108
-126z m222 116 c0 -5 -2 -10 -4 -10 -3 0 -8 5 -11 10 -3 6 -1 10 4 10 6 0 11
-4 11 -10z m320 -13 c0 -2 -10 -12 -22 -23 l-23 -19 19 23 c18 21 26 27 26 19z
m1905 -17 c3 -5 1 -10 -4 -10 -6 0 -11 5 -11 10 0 6 2 10 4 10 3 0 8 -4 11
-10z m-245 -10 c0 -5 -2 -10 -4 -10 -3 0 -8 5 -11 10 -3 6 -1 10 4 10 6 0 11
-4 11 -10z m-440 -10 c0 -5 -4 -10 -10 -10 -5 0 -10 5 -10 10 0 6 5 10 10 10
6 0 10 -4 10 -10z m-471 -14 c15 -18 3 -46 -20 -46 -22 0 -34 22 -25 45 7 19
30 19 45 1z m1798 -2 c-3 -3 -12 -4 -19 -1 -8 3 -5 6 6 6 11 1 17 -2 13 -5z
m83 -4 c0 -5 -4 -10 -10 -10 -5 0 -10 5 -10 10 0 6 5 10 10 10 6 0 10 -4 10
-10z m-1265 -21 c10 -15 -1 -23 -20 -15 -9 3 -13 10 -10 16 8 13 22 13 30 -1z
m-215 -19 c0 -5 -5 -10 -11 -10 -5 0 -7 5 -4 10 3 6 8 10 11 10 2 0 4 -4 4
-10z m1685 -9 c-3 -6 -11 -11 -17 -11 -6 0 -6 6 2 15 14 17 26 13 15 -4z
m-308 -13 c-3 -8 -6 -5 -6 6 -1 11 2 17 5 13 3 -3 4 -12 1 -19z m-2668 -25
c-8 -9 -36 -38 -62 -65 -28 -28 -45 -53 -41 -60 4 -6 3 -8 -4 -4 -6 3 -30 -17
-54 -46 -24 -28 -58 -67 -75 -86 -18 -19 -33 -38 -33 -43 0 -5 -6 -9 -12 -10
-7 -1 -116 -109 -243 -240 -283 -294 -1072 -1091 -984 -994 85 94 189 203 400
420 96 99 247 254 335 345 693 716 836 860 773 783z m2901 3 c0 -3 -4 -8 -10
-11 -5 -3 -10 -1 -10 4 0 6 5 11 10 11 6 0 10 -2 10 -4z m-1280 -10 c0 -3 -4
-8 -10 -11 -5 -3 -10 -1 -10 4 0 6 5 11 10 11 6 0 10 -2 10 -4z m65 -6 c-3 -5
-10 -10 -16 -10 -5 0 -9 5 -9 10 0 6 7 10 16 10 8 0 12 -4 9 -10z m-895 -3 c0
-2 -19 -21 -42 -42 l-43 -40 40 43 c36 39 45 47 45 39z m631 -14 c0 -5 2 -16
4 -25 4 -21 -6 -23 -23 -6 -17 17 -15 38 3 38 8 0 15 -3 16 -7z m-1551 -13 c0
-5 -5 -10 -11 -10 -5 0 -7 5 -4 10 3 6 8 10 11 10 2 0 4 -4 4 -10z m2787 -22
c-3 -7 -5 -2 -5 12 0 14 2 19 5 13 2 -7 2 -19 0 -25z m-4257 -3 c0 -14 -4 -25
-10 -25 -11 0 -14 33 -3 43 11 11 13 8 13 -18z m-90 12 c0 -2 -15 -16 -32 -33
l-33 -29 29 33 c28 30 36 37 36 29z m2885 -17 c3 -5 1 -10 -4 -10 -6 0 -11 5
-11 10 0 6 2 10 4 10 3 0 8 -4 11 -10z m175 -5 c0 -8 -7 -15 -15 -15 -16 0
-20 12 -8 23 11 12 23 8 23 -8z m-707 -12 c18 -9 36 -16 42 -14 18 5 -28 -39
-47 -45 -20 -6 -58 20 -58 41 0 10 19 35 27 35 2 0 18 -8 36 -17z m797 -18 c0
-8 -4 -15 -10 -15 -5 0 -10 7 -10 15 0 8 5 15 10 15 6 0 10 -7 10 -15z m-1326
-3 c3 -5 -1 -9 -9 -9 -8 0 -15 4 -15 9 0 4 4 8 9 8 6 0 12 -4 15 -8z m-584
-32 c0 -5 -5 -10 -11 -10 -5 0 -7 5 -4 10 3 6 8 10 11 10 2 0 4 -4 4 -10z
m910 -34 c0 -2 -8 -10 -17 -17 -16 -13 -17 -12 -4 4 13 16 21 21 21 13z m785
-5 c7 -12 -12 -24 -25 -16 -11 7 -4 25 10 25 5 0 11 -4 15 -9z m1707 -8 c22
-20 23 -70 1 -95 -24 -27 -87 -24 -107 4 -21 30 -20 50 5 82 24 31 72 35 101
9z m-3457 -2 c3 -5 1 -12 -5 -16 -5 -3 -10 1 -10 9 0 18 6 21 15 7z m435 -7
c0 -8 -4 -12 -10 -9 -5 3 -10 10 -10 16 0 5 5 9 10 9 6 0 10 -7 10 -16z m651
-47 c-13 -12 -20 -15 -16 -7 14 26 28 41 33 35 3 -3 -5 -16 -17 -28z m-461
-12 c15 -18 5 -35 -21 -35 -12 0 -19 7 -19 18 0 33 20 42 40 17z m1210 11 c0
-3 -4 -8 -10 -11 -5 -3 -10 -1 -10 4 0 6 5 11 10 11 6 0 10 -2 10 -4z m191
-49 c-18 -18 -38 8 -21 28 12 15 14 15 23 0 6 -11 5 -21 -2 -28z m-355 -2 c6
-16 -12 -45 -27 -45 -10 0 -12 44 -2 53 11 11 23 8 29 -8z m634 0 c0 -8 -7
-15 -15 -15 -8 0 -15 7 -15 15 0 8 7 15 15 15 8 0 15 -7 15 -15z m-3083 -11
c8 -21 -13 -42 -28 -27 -13 13 -5 43 11 43 6 0 13 -7 17 -16z m2628 6 c-3 -5
-10 -10 -16 -10 -5 0 -9 5 -9 10 0 6 7 10 16 10 8 0 12 -4 9 -10z m-835 -13
c0 -2 -19 -21 -42 -42 l-43 -40 40 43 c36 39 45 47 45 39z m200 -18 c0 -5 -4
-9 -10 -9 -5 0 -10 7 -10 16 0 8 5 12 10 9 6 -3 10 -10 10 -16z m2860 11 c0
-5 -4 -10 -10 -10 -5 0 -10 5 -10 10 0 6 5 10 10 10 6 0 10 -4 10 -10z m-4200
-20 c0 -5 -5 -10 -11 -10 -5 0 -7 5 -4 10 3 6 8 10 11 10 2 0 4 -4 4 -10z
m-120 -3 c0 -1 -26 -27 -57 -57 l-58 -55 55 58 c50 53 60 62 60 54z m1050 0
c0 -2 -17 -19 -37 -38 l-38 -34 34 38 c33 34 41 42 41 34z m966 -22 c12 -9 14
-14 6 -15 -8 0 -11 -7 -8 -18 4 -12 -4 -28 -24 -47 -41 -39 -38 -56 3 -19 26
23 24 20 -8 -16 -92 -103 -199 -214 -554 -570 -206 -206 -333 -330 -283 -275
50 55 147 156 217 225 70 69 211 213 315 321 156 161 184 195 161 191 -31 -4
-55 17 -45 42 9 24 64 21 71 -4 7 -27 14 -25 46 8 28 29 29 66 2 56 -7 -3 -18
4 -24 15 -7 11 -24 28 -39 36 -15 9 -20 14 -11 12 10 -3 29 10 50 34 27 32 40
39 69 39 20 0 45 -7 56 -15z m-606 -15 c0 -5 -2 -10 -4 -10 -3 0 -8 5 -11 10
-3 6 -1 10 4 10 6 0 11 -4 11 -10z m-802 -43 c2 -12 -3 -17 -17 -17 -12 0 -21
6 -21 13 0 31 32 34 38 4z m562 20 c0 -2 -15 -16 -32 -33 l-33 -29 29 33 c28
30 36 37 36 29z m480 -7 c0 -5 -4 -10 -10 -10 -5 0 -10 5 -10 10 0 6 5 10 10
10 6 0 10 -4 10 -10z m988 -12 c-2 -15 -11 -24 -25 -26 -28 -4 -31 22 -5 37
26 16 34 13 30 -11z m-238 -13 c0 -22 -4 -25 -33 -25 -40 0 -46 5 -40 31 4 14
14 19 39 19 30 0 34 -3 34 -25z m-325 -6 c11 -17 0 -20 -21 -4 -17 13 -17 14
-2 15 9 0 20 -5 23 -11z m945 1 c0 -5 -7 -10 -15 -10 -8 0 -15 5 -15 10 0 6 7
10 15 10 8 0 15 -4 15 -10z m-1406 -25 c-10 -8 -26 -14 -34 -15 -8 0 -1 8 15
19 34 21 48 18 19 -4z m-524 -29 c0 -3 -4 -8 -10 -11 -5 -3 -10 -1 -10 4 0 6
5 11 10 11 6 0 10 -2 10 -4z m-665 -62 c-18 -13 -45 -9 -45 7 0 5 9 9 21 9 13
0 23 8 27 23 7 22 7 22 10 -2 2 -15 -3 -30 -13 -37z m-585 43 c0 -1 -93 -94
-207 -207 l-208 -205 205 208 c190 192 210 212 210 204z m1430 -7 c-20 -13
-33 -13 -25 0 3 6 14 10 23 10 15 0 15 -2 2 -10z m450 -20 c-1 -14 -20 -34
-26 -27 -16 16 -12 36 7 34 10 -1 19 -4 19 -7z m885 -30 c-10 -11 -23 -20 -29
-20 -6 0 0 9 14 20 32 25 38 25 15 0z m-3448 -1 c16 -16 5 -39 -18 -39 -12 0
-19 7 -19 18 0 31 17 41 37 21z m2023 -49 c0 -5 -2 -10 -4 -10 -3 0 -8 5 -11
10 -3 6 -1 10 4 10 6 0 11 -4 11 -10z m250 -38 c0 -24 -8 -32 -26 -25 -22 8
-17 43 6 43 13 0 20 -7 20 -18z m598 -12 c17 0 15 -27 -4 -34 -21 -8 -54 11
-54 31 0 11 6 14 23 9 12 -3 28 -6 35 -6z m-1484 -25 c-4 -8 -10 -15 -15 -15
-5 0 -9 7 -9 15 0 8 7 15 15 15 9 0 12 -6 9 -15z m1086 -15 c0 -5 -4 -10 -10
-10 -5 0 -10 5 -10 10 0 6 5 10 10 10 6 0 10 -4 10 -10z m1380 -23 c0 -1 -28
-29 -62 -62 l-63 -60 60 63 c55 58 65 67 65 59z m-1970 -47 c0 -5 -5 -10 -11
-10 -5 0 -7 5 -4 10 3 6 8 10 11 10 2 0 4 -4 4 -10z m1360 6 c0 -2 -8 -10 -17
-17 -16 -13 -17 -12 -4 4 13 16 21 21 21 13z m-1415 -66 c3 -5 1 -10 -4 -10
-6 0 -11 5 -11 10 0 6 2 10 4 10 3 0 8 -4 11 -10z m848 0 c-14 -6 -23 -19 -24
-32 -1 -18 -2 -19 -6 -5 -6 22 14 47 36 46 11 0 9 -3 -6 -9z m417 -90 c-34
-38 -67 -70 -73 -70 -6 0 20 32 58 70 38 39 71 70 73 70 2 0 -24 -31 -58 -70z
m-1180 30 c0 -5 -4 -10 -10 -10 -5 0 -10 5 -10 10 0 6 5 10 10 10 6 0 10 -4
10 -10z m1360 -425 c-223 -223 -407 -405 -409 -405 -13 0 795 808 809 810 3 0
-177 -182 -400 -405z m-3120 272 c0 -2 -12 -14 -27 -28 l-28 -24 24 28 c23 25
31 32 31 24z m3110 -22 c18 -21 4 -65 -20 -65 -24 0 -38 44 -20 65 7 8 16 15
20 15 4 0 13 -7 20 -15z m-3170 -38 c0 -2 -10 -12 -22 -23 l-23 -19 19 23 c18
21 26 27 26 19z m2360 -57 c0 -5 -4 -10 -10 -10 -5 0 -10 5 -10 10 0 6 5 10
10 10 6 0 10 -4 10 -10z m-2440 -454 c0 -2 -8 -10 -17 -17 -16 -13 -17 -12 -4
4 13 16 21 21 21 13z m-40 -39 c0 -2 -15 -16 -32 -33 l-33 -29 29 33 c28 30
36 37 36 29z m2570 -412 c0 -7 -7 -16 -15 -19 -20 -7 -33 23 -14 34 16 10 29
4 29 -15z"/>
<path d="M5176 8311 c-23 -25 -13 -59 20 -67 30 -8 54 11 54 40 0 45 -44 61
-74 27z"/>
<path d="M7493 8104 c-8 -21 13 -42 28 -27 13 13 5 43 -11 43 -6 0 -13 -7 -17
-16z"/>
<path d="M6429 7343 l-24 -28 28 24 c25 23 32 31 24 31 -2 0 -14 -12 -28 -27z"/>
<path d="M6774 7092 c-74 -41 -104 -81 -124 -164 -12 -46 -7 -118 8 -118 4 0
23 15 42 33 81 73 91 77 27 11 l-69 -71 33 -37 c37 -43 91 -73 147 -82 51 -8
141 18 183 53 41 35 79 116 79 171 0 81 -55 172 -124 203 -54 24 -159 25 -202
1z"/>
<path d="M5470 6400 c0 -5 5 -10 10 -10 6 0 10 5 10 10 0 6 -4 10 -10 10 -5 0
-10 -4 -10 -10z"/>
<path d="M3866 6322 c-6 -25 -13 -29 -89 -46 -73 -16 -191 -53 -271 -85 -49
-20 -20 -24 35 -6 38 13 57 15 69 7 12 -7 40 -4 101 12 145 39 149 39 149 11
0 -14 5 -25 10 -25 6 0 10 14 10 30 l0 30 68 2 c271 8 526 -31 672 -101 38
-18 39 -18 56 0 16 18 14 20 -47 48 -167 75 -321 104 -567 105 l-183 1 6 23
c3 12 1 22 -4 22 -5 0 -12 -12 -15 -28z"/>
<path d="M4812 6108 c-7 -7 -12 -22 -12 -35 0 -19 5 -23 29 -23 21 0 32 6 36
20 12 37 -27 64 -53 38z"/>
<path d="M3087 6083 c-15 -14 -7 -43 12 -43 26 0 36 17 21 35 -14 16 -23 19
-33 8z"/>
<path d="M3256 5998 c-25 -35 -21 -85 9 -104 45 -30 105 3 105 57 0 61 -81 94
-114 47z m64 -43 c0 -8 -7 -15 -15 -15 -16 0 -20 12 -8 23 11 12 23 8 23 -8z"/>
<path d="M3095 5940 c-3 -5 -1 -10 4 -10 6 0 11 5 11 10 0 6 -2 10 -4 10 -3 0
-8 -4 -11 -10z"/>
<path d="M2810 5836 c0 -21 21 -31 30 -15 5 7 6 17 4 21 -9 14 -34 9 -34 -6z"/>
<path d="M2965 5840 c-7 -12 2 -30 16 -30 5 0 9 9 9 20 0 21 -15 27 -25 10z"/>
<path d="M3025 5770 c-7 -12 2 -30 16 -30 12 0 12 27 0 35 -5 3 -12 1 -16 -5z"/>
<path d="M3147 5774 c-15 -15 -7 -53 13 -59 22 -7 47 4 74 34 19 21 19 21 -10
21 -16 0 -38 3 -49 6 -11 3 -24 2 -28 -2z"/>
<path d="M2926 5753 c-4 -9 -4 -18 -2 -21 8 -7 36 6 36 17 0 16 -28 20 -34 4z"/>
<path d="M2947 5714 c-14 -14 -7 -35 11 -32 9 2 17 10 17 17 0 16 -18 25 -28
15z"/>
<path d="M3070 5711 c0 -6 4 -11 9 -11 5 0 11 -9 14 -21 8 -31 52 -22 52 11 0
22 -5 25 -37 28 -22 2 -38 -1 -38 -7z"/>
<path d="M2814 5636 c-11 -28 1 -51 25 -51 28 0 47 25 38 49 -8 20 -56 21 -63
2z"/>
<path d="M3010 5619 c-15 -27 -6 -49 19 -49 27 0 54 39 39 57 -16 20 -46 16
-58 -8z"/>
<path d="M2664 5586 c-10 -26 4 -48 28 -44 17 2 23 10 23 28 0 18 -6 26 -23
28 -13 2 -25 -3 -28 -12z"/>
<path d="M2795 5460 c-4 -6 -3 -16 3 -22 6 -6 12 -6 17 2 4 6 3 16 -3 22 -6 6
-12 6 -17 -2z"/>
<path d="M2656 5359 c-15 -49 -25 -96 -23 -102 3 -10 26 53 63 176 3 9 1 17
-4 17 -5 0 -21 -41 -36 -91z"/>
<path d="M2884 5395 c-9 -23 4 -47 23 -43 11 2 19 14 21 31 3 22 -1 27 -18 27
-11 0 -23 -7 -26 -15z"/>
<path d="M2766 5383 c-11 -11 -6 -23 9 -23 8 0 15 4 15 9 0 13 -16 22 -24 14z"/>
<path d="M2666 5235 c-5 -13 10 -15 98 -15 83 0 105 3 110 15 5 13 -10 15 -98
15 -83 0 -105 -3 -110 -15z"/>
<path d="M2573 5184 c-8 -21 13 -42 28 -27 13 13 5 43 -11 43 -6 0 -13 -7 -17
-16z"/>
<path d="M2423 5050 c-30 -12 -39 -54 -19 -85 22 -34 70 -38 94 -7 20 26 14
59 -14 81 -30 23 -30 23 -61 11z"/>
<path d="M2255 3551 c-3 -5 -1 -12 5 -16 5 -3 10 1 10 9 0 18 -6 21 -15 7z"/>
<path d="M2208 3543 c6 -2 18 -2 25 0 6 3 1 5 -13 5 -14 0 -19 -2 -12 -5z"/>
<path d="M1231 4693 c-13 -26 1 -45 30 -41 18 2 24 9 24 28 0 32 -39 41 -54
13z"/>
<path d="M6041 4246 c-16 -19 -6 -36 20 -36 15 0 20 6 17 22 -4 27 -21 33 -37
14z"/>
<path d="M5970 4041 c0 -11 4 -22 8 -25 14 -9 35 12 29 28 -9 23 -37 20 -37
-3z"/>
<path d="M5687 3653 c-15 -14 -7 -43 12 -43 24 0 33 13 25 34 -6 16 -25 21
-37 9z"/>
<path d="M5362 3374 c4 -21 22 -23 26 -1 2 10 -3 17 -13 17 -10 0 -15 -6 -13
-16z"/>
<path d="M5280 3325 c0 -8 7 -15 15 -15 8 0 15 7 15 15 0 8 -7 15 -15 15 -8 0
-15 -7 -15 -15z"/>
<path d="M5190 3276 c0 -9 7 -16 16 -16 9 0 14 5 12 12 -6 18 -28 21 -28 4z"/>
<path d="M5100 3245 c12 -15 30 -12 30 6 0 5 -10 9 -21 9 -18 0 -19 -2 -9 -15z"/>
<path d="M4995 3220 c-3 -6 1 -13 10 -16 19 -8 30 0 20 15 -8 14 -22 14 -30 1z"/>
<path d="M4570 4099 c0 -5 5 -7 10 -4 6 3 10 8 10 11 0 2 -4 4 -10 4 -5 0 -10
-5 -10 -11z"/>
<path d="M7762 4051 c-8 -4 -12 -19 -10 -32 2 -18 9 -24 28 -24 28 0 39 27 20
50 -14 17 -20 18 -38 6z"/>
<path d="M2577 3702 c-23 -25 -21 -59 4 -72 52 -28 102 28 64 70 -23 25 -47
25 -68 2z m46 -43 c-17 -17 -37 -1 -22 17 8 10 15 12 23 4 7 -7 7 -13 -1 -21z"/>
<path d="M6917 3343 c-10 -10 -8 -51 2 -57 24 -15 56 20 45 49 -6 15 -35 20
-47 8z"/>
<path d="M5940 3269 c-20 -19 -30 -35 -26 -45 3 -9 6 -23 6 -32 0 -15 2 -15
10 -2 5 8 10 11 10 6 0 -10 28 26 48 61 15 28 15 30 -2 36 -7 3 -28 -8 -46
-24z"/>
<path d="M4915 1670 c3 -5 8 -10 11 -10 2 0 4 5 4 10 0 6 -5 10 -11 10 -5 0
-7 -4 -4 -10z"/>
</g>
</svg>
